<svg width="500" height="394" viewBox="0 0 500 394" fill="none" xmlns="http://www.w3.org/2000/svg">
<g clip-path="url(#clip0_1_141)">
<mask id="mask0_1_141" style="mask-type:luminance" maskUnits="userSpaceOnUse" x="0" y="0" width="500" height="394">
<path d="M500 0H0V394H500V0Z" fill="white"/>
</mask>
<g mask="url(#mask0_1_141)">
<path d="M181.221 250.057C180.626 251.395 179.816 253.283 180.532 254.977C182.277 259.113 191.677 258.701 195.18 258.547C211.249 257.844 233.632 250.296 234.399 239.349C234.525 237.546 234.151 234.044 231.963 231.033C229.217 227.253 225.009 226.167 224.185 225.956C217.011 224.104 214.144 229.052 192.806 239.738C190.846 240.72 187.951 242.14 185.393 244.437C183.752 245.91 182.249 247.744 181.221 250.057Z" fill="url(#paint0_linear_1_141)"/>
<path d="M301.319 220.921L271.118 221.042L240.357 221.169C233.973 221.196 227.801 223.926 223.805 228.905C221.472 231.807 220.159 234.984 219.965 238.227C219.938 238.751 219.947 239.274 219.975 239.798C220.076 241.607 220.498 242.958 220.71 243.582C229.583 270.696 233.468 279.836 243.572 290.829C247.237 294.825 252.803 296.635 254.594 297.259C260.2 299.242 265.243 299.218 268.998 299.193C269.629 299.189 270.223 299.184 270.779 299.189L271.449 299.189C272.002 299.184 272.596 299.189 273.226 299.193C276.977 299.218 282.026 299.242 287.633 297.259C289.425 296.635 294.981 294.825 298.655 290.829C300.308 289.029 301.797 287.284 303.156 285.493C304.195 284.152 305.158 282.783 306.077 281.359C311.395 273.112 315.188 262.918 321.518 243.582C321.738 242.931 322.188 241.478 322.262 239.549C322.27 239.356 322.27 239.155 322.27 238.944C322.27 238.502 322.243 238.071 322.206 237.639C322.17 237.253 322.115 236.859 322.05 236.473C321.582 233.754 320.305 231.117 318.303 228.673C314.181 223.656 307.902 220.921 301.415 220.921C301.383 220.921 301.351 220.921 301.319 220.921Z" fill="url(#paint1_linear_1_141)"/>
<path d="M299.032 235.351C294.265 241.028 297.498 245.739 297.949 269.603C298.012 273.204 298.058 279.578 302.266 284.501C302.531 284.814 302.825 285.154 303.156 285.493C304.195 284.152 305.158 282.783 306.077 281.359C306.059 281.324 306.031 281.296 306.004 281.268C301.806 276.336 301.751 269.961 301.686 266.361C301.236 242.57 298.031 237.813 302.733 232.155C300.658 233.414 299.38 234.929 299.032 235.351Z" fill="#B26BC2"/>
<path d="M310.705 227.277C306.113 228.126 303.318 231.455 302.772 232.108C298.01 237.784 301.239 242.502 301.688 266.364C301.756 269.961 301.801 276.339 306.007 281.264C306.958 282.377 308.312 283.921 310.149 284.006C314.634 284.212 318.313 275.555 319.684 272.326C325.973 257.523 328.807 234.072 319.258 228.663C318.013 227.957 315.671 227.075 312.931 227.075C312.212 227.075 311.466 227.136 310.705 227.277Z" fill="url(#paint2_linear_1_141)"/>
<path d="M319.542 246.495C319.407 243.931 318.926 242.045 317.964 238.273C316.706 233.34 315.128 230.934 316.153 229.982C316.82 229.362 318.135 229.781 318.432 229.876C322.941 231.314 324.338 239.776 324.145 245.071C324.025 248.313 323.233 251.938 322.046 252.099C321.858 252.124 321.393 252.099 321.06 251.805C319.734 250.633 319.645 248.443 319.542 246.495Z" fill="white"/>
<path d="M322.639 255.542C322.639 256.059 322.22 256.479 321.703 256.479C321.186 256.479 320.767 256.059 320.767 255.542C320.767 255.025 321.186 254.606 321.703 254.606C322.22 254.606 322.639 255.025 322.639 255.542Z" fill="white"/>
<path d="M250.376 90.2931C247.881 90.2931 245.859 92.3152 245.859 94.8102L245.859 106.903C245.859 109.397 247.881 111.419 250.376 111.419L284.21 111.419C286.704 111.419 288.727 109.397 288.727 106.903L288.727 94.8101C288.727 92.3151 286.704 90.2931 284.21 90.2931L250.376 90.2931Z" fill="url(#paint3_linear_1_141)"/>
<path d="M261.015 59.3711C261.015 62.8371 263.826 65.6471 267.293 65.6471C270.759 65.6471 273.569 62.8371 273.569 59.3711C273.569 55.9041 270.759 53.0931 267.293 53.0931C263.826 53.0931 261.015 55.9041 261.015 59.3711Z" fill="url(#paint4_linear_1_141)"/>
<path d="M271.656 56.9201C271.656 57.9771 270.799 58.8341 269.742 58.8341C268.685 58.8341 267.828 57.9771 267.828 56.9201C267.828 55.8631 268.685 55.0061 269.742 55.0061C270.799 55.0061 271.656 55.8631 271.656 56.9201Z" fill="white"/>
<path d="M287.486 96.5471C287.33 96.5691 287.23 95.6521 286.466 94.2341C286.466 94.2341 286.109 93.5721 285.701 93.0101C284.385 91.2001 279.928 91.2401 279.578 91.2431C272.634 91.3041 268.172 90.8641 268.173 90.9051C268.174 90.9411 271.429 90.8741 273.815 90.8261C280.547 90.6891 284.556 90.3271 286.275 92.1301C286.988 92.8781 287.346 93.8521 287.346 93.8521C287.834 95.1741 287.672 96.5201 287.486 96.5471Z" fill="white"/>
<path d="M253.515 100.397C218.91 100.397 190.597 128.71 190.597 163.316L190.597 181.686C190.597 201.135 206.509 217.049 225.959 217.049L308.626 217.049C328.156 217.049 343.989 201.216 343.989 181.686L343.989 163.316C343.989 128.71 315.676 100.397 281.07 100.397L253.515 100.397Z" fill="url(#paint5_linear_1_141)"/>
<path d="M321.337 120.522C321.42 123.453 319.027 126.957 316.286 127.256C313.718 127.537 311.667 124.914 309.553 122.208C307.468 119.541 302.909 112.689 304.725 110.751C307.119 108.194 321.141 113.608 321.337 120.522Z" fill="white"/>
<path d="M300.056 107.171C300.056 108.376 299.079 109.353 297.874 109.353C296.669 109.353 295.693 108.376 295.693 107.171C295.693 105.966 296.669 104.989 297.874 104.989C299.079 104.989 300.056 105.966 300.056 107.171Z" fill="white"/>
<path d="M286.042 187.298C285.873 188.961 284.488 190.242 282.824 190.403L259.83 192.62C258.167 192.781 256.563 191.788 256.078 190.189C255.863 189.479 255.697 188.745 255.584 187.992C255.553 187.783 255.608 187.571 255.738 187.405C255.868 187.239 256.06 187.135 256.27 187.114L285.279 184.316C285.485 184.296 285.691 184.362 285.848 184.499C286.005 184.635 286.099 184.829 286.107 185.037C286.141 185.801 286.118 186.556 286.042 187.298Z" fill="white"/>
<path d="M282.828 190.405L259.829 192.618C258.258 192.774 256.752 191.903 256.172 190.47C258.34 197.174 264.936 201.702 272.238 200.996C279.642 200.289 285.309 194.428 286.043 187.3C285.869 188.963 284.491 190.24 282.828 190.405Z" fill="#B26BC2"/>
<path d="M244.589 134.33C225.604 135.317 210.117 148.465 207.758 165.563L207.707 165.931C207.011 170.98 209.794 175.9 214.723 178.337C216.731 179.329 218.98 179.849 221.267 179.849L313.319 179.849C315.606 179.849 317.855 179.329 319.863 178.337C324.792 175.9 327.574 170.98 326.878 165.931C326.861 165.807 326.844 165.683 326.827 165.56C324.46 148.397 308.859 135.303 289.802 134.32C283.392 133.99 276.734 133.788 269.844 133.748C268.99 133.743 268.14 133.74 267.293 133.74C259.419 133.74 251.84 133.953 244.589 134.33Z" fill="url(#paint6_linear_1_141)"/>
<path d="M321.026 161.17C320.326 161.664 315.446 151.724 302.349 143.106C297.746 140.076 293.2 137.918 293.47 137.29C293.744 136.652 298.863 137.838 302.962 139.739C316.019 145.797 321.858 160.583 321.026 161.17Z" fill="white"/>
<path d="M260.391 158.723C260.391 168.309 252.618 176.081 243.032 176.081C233.445 176.081 225.674 168.309 225.674 158.723C225.674 149.137 233.445 141.365 243.032 141.365C252.618 141.365 260.391 149.137 260.391 158.723Z" fill="url(#paint7_linear_1_141)"/>
<path d="M255.49 158.723C255.49 165.603 249.912 171.181 243.032 171.181C236.151 171.181 230.573 165.603 230.573 158.723C230.573 151.842 236.151 146.265 243.032 146.265C249.912 146.265 255.49 151.842 255.49 158.723Z" fill="white"/>
<path d="M232.567 158.723C232.567 164.503 237.253 169.187 243.031 169.187C248.811 169.187 253.496 164.503 253.496 158.723C253.496 152.944 248.811 148.259 243.031 148.259C237.253 148.259 232.567 152.944 232.567 158.723Z" fill="#850DA3"/>
<path d="M249.736 156.011C249.736 158.152 248.001 159.888 245.86 159.888C243.718 159.888 241.983 158.152 241.983 156.011C241.983 153.87 243.718 152.136 245.86 152.136C248.001 152.136 249.736 153.87 249.736 156.011Z" fill="white"/>
<path d="M243.031 166.748C243.031 167.602 242.339 168.294 241.484 168.294C240.63 168.294 239.938 167.602 239.938 166.748C239.938 165.894 240.63 165.202 241.484 165.202C242.339 165.202 243.031 165.894 243.031 166.748Z" fill="white"/>
<path d="M237.649 164.428C237.649 164.855 237.303 165.201 236.876 165.201C236.449 165.201 236.103 164.855 236.103 164.428C236.103 164.001 236.449 163.655 236.876 163.655C237.303 163.655 237.649 164.001 237.649 164.428Z" fill="white"/>
<path d="M307.391 158.723C307.391 168.309 299.618 176.081 290.032 176.081C280.445 176.081 272.674 168.309 272.674 158.723C272.674 149.137 280.445 141.365 290.032 141.365C299.618 141.365 307.391 149.137 307.391 158.723Z" fill="url(#paint8_linear_1_141)"/>
<path d="M302.49 158.723C302.49 165.603 296.912 171.181 290.032 171.181C283.151 171.181 277.573 165.603 277.573 158.723C277.573 151.842 283.151 146.265 290.032 146.265C296.912 146.265 302.49 151.842 302.49 158.723Z" fill="white"/>
<path d="M279.567 158.723C279.567 164.503 284.253 169.187 290.031 169.187C295.811 169.187 300.496 164.503 300.496 158.723C300.496 152.944 295.811 148.259 290.031 148.259C284.253 148.259 279.567 152.944 279.567 158.723Z" fill="#850DA3"/>
<path d="M296.736 156.011C296.736 158.152 295.001 159.888 292.86 159.888C290.718 159.888 288.983 158.152 288.983 156.011C288.983 153.87 290.718 152.136 292.86 152.136C295.001 152.136 296.736 153.87 296.736 156.011Z" fill="white"/>
<path d="M290.031 166.748C290.031 167.602 289.339 168.294 288.484 168.294C287.63 168.294 286.938 167.602 286.938 166.748C286.938 165.894 287.63 165.202 288.484 165.202C289.339 165.202 290.031 165.894 290.031 166.748Z" fill="white"/>
<path d="M284.649 164.428C284.649 164.855 284.303 165.201 283.876 165.201C283.449 165.201 283.103 164.855 283.103 164.428C283.103 164.001 283.449 163.655 283.876 163.655C284.303 163.655 284.649 164.001 284.649 164.428Z" fill="white"/>
</g>
</g>
<defs>
<linearGradient id="paint0_linear_1_141" x1="229.544" y1="243.492" x2="102.319" y2="252.229" gradientUnits="userSpaceOnUse">
<stop stop-color="#B26BC2"/>
<stop offset="0.5" stop-color="#DAB4E1"/>
<stop offset="1" stop-color="#DAB4E1"/>
</linearGradient>
<linearGradient id="paint1_linear_1_141" x1="246.104" y1="298.082" x2="279.104" y2="239.082" gradientUnits="userSpaceOnUse">
<stop stop-color="#B26BC2"/>
<stop offset="0.5" stop-color="#B26BC2"/>
<stop offset="1" stop-color="#DAB4E1"/>
</linearGradient>
<linearGradient id="paint2_linear_1_141" x1="327.909" y1="294.644" x2="305.409" y2="221.144" gradientUnits="userSpaceOnUse">
<stop stop-color="#B26BC2"/>
<stop offset="0.5" stop-color="#B26BC2"/>
<stop offset="1" stop-color="#DAB4E1"/>
</linearGradient>
<linearGradient id="paint3_linear_1_141" x1="217.293" y1="101.356" x2="286.293" y2="101.356" gradientUnits="userSpaceOnUse">
<stop stop-color="#B26BC2"/>
<stop offset="0.5" stop-color="#DAB4E1"/>
<stop offset="1" stop-color="#DAB4E1"/>
</linearGradient>
<linearGradient id="paint4_linear_1_141" x1="252.292" y1="61.1202" x2="275.042" y2="61.1201" gradientUnits="userSpaceOnUse">
<stop stop-color="#DAB4E1"/>
<stop offset="0.5" stop-color="#B26BC2"/>
<stop offset="1" stop-color="#DAB4E1"/>
</linearGradient>
<linearGradient id="paint5_linear_1_141" x1="202.293" y1="203.223" x2="335.793" y2="127.223" gradientUnits="userSpaceOnUse">
<stop stop-color="#B26BC2"/>
<stop offset="0.5" stop-color="#DAB4E1"/>
<stop offset="1" stop-color="#DAB4E1"/>
</linearGradient>
<linearGradient id="paint6_linear_1_141" x1="267.793" y1="163.795" x2="266.793" y2="109.295" gradientUnits="userSpaceOnUse">
<stop stop-color="#850DA3"/>
<stop offset="0.5" stop-color="#B26BC2"/>
<stop offset="1" stop-color="#DAB4E1"/>
</linearGradient>
<linearGradient id="paint7_linear_1_141" x1="243.532" y1="172.723" x2="244.032" y2="119.723" gradientUnits="userSpaceOnUse">
<stop stop-color="#850DA3"/>
<stop offset="0.5" stop-color="#850DA3"/>
<stop offset="1" stop-color="#850DA3"/>
</linearGradient>
<linearGradient id="paint8_linear_1_141" x1="290.532" y1="172.723" x2="291.032" y2="119.723" gradientUnits="userSpaceOnUse">
<stop stop-color="#850DA3"/>
<stop offset="0.5" stop-color="#850DA3"/>
<stop offset="1" stop-color="#850DA3"/>
</linearGradient>
<clipPath id="clip0_1_141">
<rect width="500" height="394" fill="white"/>
</clipPath>
</defs>
</svg>
